<svg width="32" height="40" viewBox="0 0 32 40" fill="none" xmlns="http://www.w3.org/2000/svg">
<g transform="translate(0 3)">
<path fill-rule="evenodd" clip-rule="evenodd" d="M4.52412 26.1247C4.13289 25.5085 4.12699 24.7237 4.50891 24.1017L18.9588 0.535456C19.703 0.350325 20.5305 0.841305 20.8457 1.57041L30.0375 22.8254C30.5179 23.9352 29.8794 25.211 28.7398 25.5587L7.98522 31.8946C7.15386 32.1484 6.25764 31.8084 5.79297 31.1006L4.52412 26.1247ZM20.0238 6.05267C20.1598 5.37789 21.0872 5.28051 21.3582 5.9138L26.7247 18.4441C26.8974 18.8476 26.6825 19.3118 26.2651 19.4383L12.0422 23.751C11.5141 23.9113 11.0075 23.4478 11.1168 22.9265L20.0238 6.05267Z" fill="#0C344B"/>
</g>
</svg>
